<svg width="77" height="77" viewBox="0 0 77 77" fill="none" xmlns="http://www.w3.org/2000/svg">
<g clip-path="url(#clip0_72_162)">
<path d="M67.1435 21.3831L59.2595 21.3249C57.1302 21.3249 55.3985 19.5108 55.3985 17.2797L55.3927 9.63127C55.3927 4.32064 50.9896 0 45.5781 0H31.1967C25.7852 0 21.3812 4.32064 21.3812 9.63127L21.4326 31.7241C21.4326 36.614 25.1685 40.6631 29.9846 41.273H46.1153C47.8907 41.4718 49.316 42.7711 49.6224 44.4369V67.1445C49.6224 69.2728 47.8073 71.0046 45.5772 71.0046H31.1967C28.9665 71.0046 27.1514 69.2728 27.1514 67.1445V58.1212C26.6191 53.5649 22.8337 49.9657 18.1368 49.6224H9.63127C7.50198 49.6224 5.77023 47.8083 5.77023 45.5772V31.1976C5.77023 28.9665 7.50198 27.1524 9.63127 27.1524H15.6119V21.3821H9.63127C4.31967 21.3821 0 25.7852 0 31.1976V45.5772C0 50.9896 4.31967 55.3927 9.63127 55.3927H17.8828C19.6523 55.5934 21.0728 56.8878 21.3812 58.5459V67.1435C21.3812 72.4542 25.7852 76.7748 31.1967 76.7748H45.5772C50.9886 76.7748 55.3917 72.4542 55.3917 67.1435V51.0866H55.4566L55.3917 44.0141C54.8642 39.4482 51.0701 35.8402 46.3616 35.5037H30.419C28.5845 35.1382 27.2038 33.5839 27.2038 31.7261L27.1524 9.63321C27.1524 7.50489 28.9675 5.77314 31.1976 5.77314H45.5781C47.8083 5.77314 49.6234 7.50489 49.6234 9.63321L49.6282 17.2816C49.6282 22.6931 53.9499 27.0971 59.2605 27.0971L67.1445 27.1553C69.2728 27.1553 71.0055 28.9694 71.0055 31.2005V45.5801C71.0055 47.8112 69.2728 49.6253 67.1445 49.6253H61.1639V55.3956H67.1445C72.4551 55.3956 76.7758 50.9925 76.7758 45.5801V31.2005C76.7738 25.7862 72.4532 21.3831 67.1435 21.3831Z" fill="white"/>
</g>
<defs>
<clipPath id="clip0_72_162">
<rect width="77" height="77" fill="white"/>
</clipPath>
</defs>
</svg>
